<svg xmlns="http://www.w3.org/2000/svg" xmlns:xlink="http://www.w3.org/1999/xlink" width="1080" zoomAndPan="magnify" viewBox="0 0 810 809.999993" height="1080" preserveAspectRatio="xMidYMid meet" version="1.0"><defs><clipPath id="id1"><path d="M 456 458 L 636 458 L 636 637.445312 L 456 637.445312 Z M 456 458 " clip-rule="nonzero"/></clipPath></defs><path fill="#2e8bc0" d="M 364.488281 543.761719 C 360.859375 543.765625 357.230469 543.65625 353.605469 543.433594 C 349.980469 543.214844 346.367188 542.882812 342.765625 542.4375 C 339.160156 541.996094 335.574219 541.441406 332.003906 540.78125 C 328.433594 540.117188 324.886719 539.34375 321.363281 538.464844 C 317.839844 537.582031 314.347656 536.59375 310.886719 535.5 C 307.425781 534.402344 304 533.203125 300.613281 531.898438 C 297.222656 530.59375 293.878906 529.183594 290.578125 527.671875 C 287.277344 526.164062 284.023438 524.550781 280.820312 522.839844 C 277.617188 521.128906 274.46875 519.324219 271.378906 517.417969 C 268.285156 515.515625 265.253906 513.519531 262.285156 511.429688 C 259.316406 509.339844 256.414062 507.160156 253.578125 504.890625 C 250.742188 502.625 247.980469 500.269531 245.289062 497.832031 C 242.597656 495.394531 239.984375 492.875 237.449219 490.277344 C 234.910156 487.679688 232.457031 485.007812 230.085938 482.257812 C 227.710938 479.507812 225.425781 476.6875 223.226562 473.800781 C 221.027344 470.910156 218.917969 467.957031 216.902344 464.9375 C 214.882812 461.917969 212.960938 458.839844 211.132812 455.703125 C 209.304688 452.566406 207.570312 449.378906 205.9375 446.132812 C 204.304688 442.890625 202.773438 439.601562 201.34375 436.265625 C 199.910156 432.925781 198.585938 429.550781 197.359375 426.128906 C 196.136719 422.710938 195.019531 419.257812 194.007812 415.769531 C 192.996094 412.285156 192.09375 408.769531 191.296875 405.226562 C 190.5 401.683594 189.816406 398.121094 189.238281 394.535156 C 188.660156 390.949219 188.195312 387.351562 187.839844 383.738281 C 187.484375 380.125 187.238281 376.503906 187.105469 372.875 C 186.96875 369.246094 186.949219 365.617188 187.039062 361.984375 C 187.125 358.355469 187.328125 354.730469 187.636719 351.113281 C 187.949219 347.496094 188.371094 343.890625 188.90625 340.300781 C 189.4375 336.707031 190.082031 333.136719 190.832031 329.585938 C 191.585938 326.03125 192.445312 322.507812 193.414062 319.007812 C 194.382812 315.507812 195.457031 312.039062 196.640625 308.605469 C 197.820312 305.171875 199.109375 301.78125 200.496094 298.425781 C 201.886719 295.070312 203.378906 291.761719 204.972656 288.5 C 206.566406 285.234375 208.257812 282.023438 210.046875 278.867188 C 211.835938 275.707031 213.722656 272.605469 215.703125 269.5625 C 217.683594 266.519531 219.757812 263.539062 221.921875 260.625 C 224.082031 257.707031 226.335938 254.859375 228.671875 252.082031 C 231.011719 249.304688 233.433594 246.601562 235.9375 243.972656 C 238.441406 241.34375 241.023438 238.792969 243.683594 236.324219 C 246.347656 233.851562 249.082031 231.464844 251.886719 229.164062 C 254.695312 226.859375 257.570312 224.644531 260.515625 222.519531 C 263.457031 220.394531 266.464844 218.359375 269.53125 216.417969 C 272.601562 214.476562 275.726562 212.628906 278.90625 210.878906 C 282.089844 209.128906 285.320312 207.480469 288.605469 205.929688 C 291.886719 204.378906 295.214844 202.929688 298.585938 201.582031 C 301.957031 200.234375 305.367188 198.992188 308.816406 197.855469 C 312.265625 196.714844 315.746094 195.683594 319.257812 194.761719 C 322.769531 193.835938 326.304688 193.023438 329.867188 192.316406 C 333.425781 191.609375 337.007812 191.011719 340.605469 190.523438 C 344.203125 190.035156 347.8125 189.660156 351.433594 189.394531 C 355.054688 189.128906 358.683594 188.976562 362.3125 188.933594 C 365.945312 188.890625 369.574219 188.957031 373.199219 189.136719 C 376.824219 189.320312 380.445312 189.609375 384.050781 190.011719 C 387.660156 190.414062 391.253906 190.925781 394.832031 191.550781 C 398.410156 192.171875 401.964844 192.902344 405.496094 193.746094 C 409.027344 194.585938 412.53125 195.535156 416.003906 196.589844 C 419.480469 197.644531 422.917969 198.808594 426.320312 200.074219 C 429.722656 201.34375 433.085938 202.710938 436.402344 204.1875 C 439.722656 205.660156 442.992188 207.234375 446.214844 208.90625 C 449.4375 210.582031 452.605469 212.351562 455.71875 214.222656 C 458.832031 216.089844 461.882812 218.054688 464.875 220.109375 C 467.867188 222.164062 470.796875 224.3125 473.65625 226.546875 C 476.519531 228.785156 479.308594 231.105469 482.027344 233.511719 C 484.746094 235.917969 487.386719 238.40625 489.953125 240.976562 C 493.035156 244.054688 496 247.246094 498.847656 250.542969 C 501.695312 253.839844 504.417969 257.238281 507.015625 260.734375 C 509.613281 264.234375 512.078125 267.820312 514.410156 271.5 C 516.742188 275.183594 518.9375 278.941406 520.992188 282.785156 C 523.046875 286.625 524.957031 290.539062 526.726562 294.519531 C 528.492188 298.503906 530.109375 302.542969 531.578125 306.644531 C 533.046875 310.746094 534.363281 314.898438 535.527344 319.097656 C 536.691406 323.296875 537.699219 327.53125 538.550781 331.804688 C 539.398438 336.078125 540.09375 340.375 540.625 344.699219 C 541.160156 349.023438 541.535156 353.359375 541.75 357.710938 C 541.964844 362.0625 542.019531 366.417969 541.910156 370.773438 C 541.804688 375.128906 541.539062 379.472656 541.113281 383.808594 C 540.683594 388.144531 540.097656 392.460938 539.355469 396.753906 C 538.609375 401.046875 537.707031 405.304688 536.648438 409.53125 C 535.589844 413.757812 534.378906 417.9375 533.011719 422.074219 C 531.644531 426.210938 530.125 430.292969 528.457031 434.320312 C 526.789062 438.34375 524.976562 442.300781 523.015625 446.191406 C 521.058594 450.085938 518.957031 453.898438 516.714844 457.636719 C 514.476562 461.371094 512.101562 465.019531 509.589844 468.582031 C 507.082031 472.144531 504.445312 475.609375 501.679688 478.972656 C 498.914062 482.339844 496.027344 485.601562 493.023438 488.757812 C 490.019531 491.910156 486.902344 494.949219 483.671875 497.875 C 480.441406 500.800781 477.109375 503.601562 473.675781 506.28125 C 470.238281 508.960938 466.707031 511.507812 463.085938 513.925781 C 459.460938 516.34375 455.753906 518.628906 451.960938 520.773438 C 448.167969 522.917969 444.304688 524.921875 440.363281 526.78125 C 436.425781 528.644531 432.421875 530.355469 428.355469 531.921875 C 424.289062 533.488281 420.171875 534.898438 416 536.164062 C 411.832031 537.425781 407.621094 538.53125 403.367188 539.484375 C 399.117188 540.433594 394.835938 541.226562 390.527344 541.863281 C 386.214844 542.5 381.886719 542.976562 377.542969 543.292969 C 373.199219 543.609375 368.847656 543.765625 364.488281 543.761719 Z M 364.488281 228.011719 C 361.84375 228.003906 359.203125 228.074219 356.5625 228.222656 C 353.921875 228.367188 351.285156 228.585938 348.660156 228.882812 C 346.03125 229.179688 343.414062 229.550781 340.804688 230 C 338.199219 230.445312 335.605469 230.964844 333.03125 231.5625 C 330.453125 232.15625 327.894531 232.824219 325.355469 233.566406 C 322.820312 234.308594 320.304688 235.121094 317.8125 236.007812 C 315.320312 236.894531 312.855469 237.851562 310.417969 238.878906 C 307.980469 239.90625 305.574219 241 303.199219 242.164062 C 300.824219 243.332031 298.488281 244.5625 296.183594 245.863281 C 293.878906 247.160156 291.613281 248.523438 289.390625 249.953125 C 287.164062 251.382812 284.980469 252.875 282.839844 254.429688 C 280.699219 255.984375 278.605469 257.597656 276.558594 259.269531 C 274.511719 260.945312 272.515625 262.675781 270.566406 264.464844 C 268.617188 266.253906 266.722656 268.097656 264.878906 269.992188 C 263.035156 271.890625 261.25 273.839844 259.519531 275.839844 C 257.789062 277.839844 256.117188 279.886719 254.503906 281.980469 C 252.886719 284.078125 251.335938 286.214844 249.84375 288.402344 C 248.355469 290.585938 246.925781 292.808594 245.5625 295.078125 C 244.199219 297.34375 242.902344 299.644531 241.671875 301.988281 C 240.441406 304.328125 239.277344 306.703125 238.179688 309.109375 C 237.085938 311.515625 236.058594 313.953125 235.105469 316.417969 C 234.148438 318.886719 233.265625 321.375 232.453125 323.894531 C 231.640625 326.410156 230.898438 328.949219 230.230469 331.507812 C 229.5625 334.066406 228.96875 336.640625 228.449219 339.234375 C 227.929688 341.828125 227.484375 344.433594 227.117188 347.054688 C 226.746094 349.671875 226.449219 352.300781 226.230469 354.933594 C 226.011719 357.570312 225.867188 360.210938 225.796875 362.855469 C 225.730469 365.496094 225.738281 368.140625 225.820312 370.785156 C 225.902344 373.429688 226.0625 376.066406 226.296875 378.703125 C 226.53125 381.335938 226.839844 383.960938 227.222656 386.578125 C 227.609375 389.195312 228.070312 391.796875 228.601562 394.386719 C 229.136719 396.980469 229.742188 399.550781 230.425781 402.105469 C 231.105469 404.664062 231.859375 407.195312 232.6875 409.707031 C 233.515625 412.222656 234.414062 414.707031 235.382812 417.167969 C 236.351562 419.628906 237.390625 422.058594 238.5 424.460938 C 239.605469 426.863281 240.785156 429.230469 242.027344 431.5625 C 243.273438 433.898438 244.582031 436.195312 245.957031 438.453125 C 247.332031 440.710938 248.773438 442.929688 250.277344 445.105469 C 251.777344 447.28125 253.34375 449.414062 254.96875 451.5 C 256.59375 453.585938 258.277344 455.625 260.019531 457.613281 C 261.761719 459.605469 263.558594 461.542969 265.410156 463.429688 C 267.265625 465.316406 269.167969 467.148438 271.128906 468.925781 C 273.085938 470.703125 275.09375 472.425781 277.148438 474.085938 C 279.207031 475.75 281.308594 477.351562 283.457031 478.894531 C 285.605469 480.4375 287.796875 481.917969 290.03125 483.332031 C 292.265625 484.75 294.535156 486.101562 296.847656 487.386719 C 299.15625 488.675781 301.503906 489.894531 303.882812 491.046875 C 306.265625 492.199219 308.675781 493.28125 311.121094 494.292969 C 313.5625 495.308594 316.03125 496.25 318.527344 497.121094 C 321.027344 497.996094 323.546875 498.796875 326.085938 499.523438 C 328.628906 500.25 331.191406 500.90625 333.773438 501.484375 C 336.351562 502.066406 338.945312 502.574219 341.554688 503.003906 C 344.164062 503.4375 346.785156 503.796875 349.414062 504.078125 C 352.042969 504.359375 354.679688 504.566406 357.320312 504.695312 C 359.960938 504.828125 362.605469 504.882812 365.25 504.863281 C 367.894531 504.84375 370.535156 504.746094 373.175781 504.574219 C 375.816406 504.402344 378.449219 504.15625 381.074219 503.832031 C 383.699219 503.507812 386.3125 503.113281 388.914062 502.640625 C 391.515625 502.167969 394.101562 501.621094 396.671875 501 C 399.242188 500.378906 401.792969 499.683594 404.324219 498.917969 C 406.855469 498.148438 409.363281 497.3125 411.847656 496.402344 C 414.328125 495.488281 416.785156 494.507812 419.210938 493.457031 C 421.636719 492.40625 424.03125 491.285156 426.394531 490.097656 C 428.757812 488.910156 431.085938 487.652344 433.375 486.332031 C 435.664062 485.007812 437.917969 483.621094 440.128906 482.171875 C 442.339844 480.71875 444.507812 479.207031 446.632812 477.632812 C 448.753906 476.054688 450.832031 474.421875 452.863281 472.726562 C 454.894531 471.03125 456.875 469.28125 458.804688 467.472656 C 460.734375 465.667969 462.613281 463.804688 464.4375 461.890625 C 466.261719 459.972656 468.027344 458.007812 469.738281 455.992188 C 471.449219 453.972656 473.101562 451.910156 474.695312 449.796875 C 476.285156 447.6875 477.816406 445.53125 479.285156 443.332031 C 480.753906 441.132812 482.160156 438.894531 483.5 436.613281 C 484.84375 434.335938 486.117188 432.019531 487.324219 429.664062 C 488.53125 427.3125 489.671875 424.925781 490.742188 422.507812 C 491.8125 420.089844 492.816406 417.644531 493.746094 415.167969 C 494.675781 412.691406 495.535156 410.191406 496.324219 407.667969 C 497.113281 405.144531 497.828125 402.597656 498.46875 400.03125 C 499.109375 397.464844 499.679688 394.882812 500.171875 392.285156 C 500.667969 389.6875 501.085938 387.078125 501.429688 384.457031 C 501.773438 381.832031 502.042969 379.203125 502.234375 376.566406 C 502.429688 373.929688 502.546875 371.289062 502.589844 368.644531 C 502.632812 366 502.597656 363.355469 502.488281 360.710938 C 502.378906 358.070312 502.195312 355.433594 501.933594 352.800781 C 501.671875 350.167969 501.335938 347.546875 500.925781 344.933594 C 500.515625 342.320312 500.03125 339.722656 499.46875 337.136719 C 498.910156 334.554688 498.277344 331.984375 497.570312 329.4375 C 496.863281 326.890625 496.082031 324.363281 495.230469 321.859375 C 494.378906 319.355469 493.457031 316.878906 492.464844 314.425781 C 491.46875 311.976562 490.40625 309.554688 489.273438 307.164062 C 488.140625 304.773438 486.941406 302.417969 485.675781 300.097656 C 484.40625 297.777344 483.074219 295.496094 481.675781 293.25 C 480.277344 291.003906 478.816406 288.800781 477.292969 286.640625 C 475.765625 284.480469 474.179688 282.363281 472.535156 280.292969 C 470.890625 278.222656 469.1875 276.203125 467.425781 274.230469 C 465.664062 272.257812 463.847656 270.335938 461.972656 268.46875 C 458.78125 265.273438 455.441406 262.242188 451.949219 259.375 C 448.460938 256.511719 444.839844 253.820312 441.085938 251.3125 C 437.332031 248.800781 433.460938 246.480469 429.480469 244.347656 C 425.5 242.21875 421.421875 240.285156 417.25 238.554688 C 413.078125 236.824219 408.832031 235.300781 404.511719 233.988281 C 400.191406 232.671875 395.816406 231.574219 391.390625 230.6875 C 386.960938 229.800781 382.5 229.136719 378.003906 228.691406 C 373.511719 228.242188 369.007812 228.015625 364.488281 228.011719 Z M 364.488281 228.011719 " fill-opacity="1" fill-rule="nonzero"/><g clip-path="url(#id1)"><path fill="#2e8bc0" d="M 616 637.445312 C 614.722656 637.441406 613.457031 637.308594 612.203125 637.054688 C 610.949219 636.800781 609.734375 636.429688 608.554688 635.933594 C 607.375 635.441406 606.257812 634.835938 605.195312 634.125 C 604.136719 633.410156 603.15625 632.601562 602.253906 631.695312 L 462.363281 491.902344 C 461.914062 491.449219 461.484375 490.976562 461.078125 490.484375 C 460.671875 489.988281 460.292969 489.476562 459.9375 488.945312 C 459.582031 488.414062 459.253906 487.867188 458.953125 487.304688 C 458.652344 486.738281 458.378906 486.164062 458.136719 485.574219 C 457.890625 484.984375 457.675781 484.382812 457.492188 483.769531 C 457.304688 483.160156 457.148438 482.539062 457.023438 481.914062 C 456.902344 481.285156 456.808594 480.65625 456.746094 480.019531 C 456.679688 479.382812 456.648438 478.746094 456.648438 478.109375 C 456.648438 477.46875 456.679688 476.832031 456.746094 476.195312 C 456.808594 475.558594 456.902344 474.929688 457.023438 474.300781 C 457.148438 473.675781 457.304688 473.054688 457.492188 472.445312 C 457.675781 471.832031 457.890625 471.234375 458.136719 470.640625 C 458.378906 470.050781 458.652344 469.476562 458.953125 468.910156 C 459.253906 468.347656 459.582031 467.800781 459.9375 467.269531 C 460.292969 466.738281 460.671875 466.226562 461.078125 465.730469 C 461.484375 465.238281 461.914062 464.765625 462.363281 464.3125 C 462.816406 463.863281 463.289062 463.433594 463.78125 463.027344 C 464.277344 462.621094 464.789062 462.242188 465.320312 461.886719 C 465.851562 461.53125 466.398438 461.203125 466.960938 460.902344 C 467.527344 460.601562 468.101562 460.328125 468.691406 460.085938 C 469.28125 459.839844 469.882812 459.625 470.496094 459.441406 C 471.105469 459.253906 471.726562 459.097656 472.351562 458.976562 C 472.980469 458.851562 473.609375 458.757812 474.246094 458.695312 C 474.882812 458.632812 475.519531 458.601562 476.15625 458.601562 C 476.796875 458.601562 477.433594 458.632812 478.070312 458.695312 C 478.707031 458.757812 479.335938 458.851562 479.964844 458.976562 C 480.589844 459.097656 481.210938 459.253906 481.820312 459.441406 C 482.433594 459.625 483.03125 459.839844 483.625 460.085938 C 484.214844 460.328125 484.789062 460.601562 485.355469 460.902344 C 485.917969 461.203125 486.464844 461.53125 486.996094 461.886719 C 487.527344 462.242188 488.039062 462.621094 488.535156 463.027344 C 489.027344 463.433594 489.5 463.863281 489.953125 464.3125 L 629.746094 604.203125 C 630.417969 604.882812 631.039062 605.605469 631.605469 606.375 C 632.175781 607.144531 632.683594 607.949219 633.132812 608.792969 C 633.578125 609.636719 633.964844 610.511719 634.285156 611.410156 C 634.605469 612.3125 634.859375 613.230469 635.042969 614.167969 C 635.230469 615.105469 635.34375 616.050781 635.390625 617.007812 C 635.4375 617.960938 635.414062 618.914062 635.320312 619.867188 C 635.226562 620.816406 635.0625 621.753906 634.832031 622.683594 C 634.597656 623.609375 634.300781 624.515625 633.933594 625.398438 C 633.570312 626.28125 633.140625 627.132812 632.652344 627.953125 C 632.160156 628.773438 631.613281 629.554688 631.007812 630.292969 C 630.402344 631.035156 629.746094 631.726562 629.039062 632.371094 C 628.332031 633.011719 627.582031 633.601562 626.789062 634.132812 C 625.996094 634.667969 625.167969 635.140625 624.304688 635.550781 C 623.441406 635.960938 622.550781 636.308594 621.636719 636.585938 C 620.726562 636.867188 619.796875 637.082031 618.851562 637.222656 C 617.90625 637.367188 616.953125 637.441406 616 637.445312 Z M 616 637.445312 " fill-opacity="1" fill-rule="nonzero"/></g></svg>